<?xml version="1.0" encoding="UTF-8"?>
<svg xmlns="http://www.w3.org/2000/svg" xmlns:xlink="http://www.w3.org/1999/xlink" width="1920" height="1080" viewBox="0 0 1920 1080">
<defs>
<g>
<g id="glyph-0-0">
<path d="M 3.25 0.140625 C 2.59375 0.140625 2.082031 0.0664062 1.71875 -0.078125 C 1.351562 -0.222656 1.097656 -0.398438 0.953125 -0.609375 C 0.804688 -0.816406 0.734375 -1.019531 0.734375 -1.21875 C 0.734375 -1.46875 0.800781 -1.660156 0.9375 -1.796875 C 1.070312 -1.929688 1.285156 -2 1.578125 -2 C 1.578125 -1.613281 1.707031 -1.289062 1.96875 -1.03125 C 2.238281 -0.78125 2.644531 -0.65625 3.1875 -0.65625 C 3.550781 -0.65625 3.875 -0.722656 4.15625 -0.859375 C 4.445312 -1.003906 4.675781 -1.238281 4.84375 -1.5625 C 5.007812 -1.894531 5.09375 -2.34375 5.09375 -2.90625 C 5.09375 -3.601562 4.90625 -4.125 4.53125 -4.46875 C 4.164062 -4.8125 3.675781 -4.984375 3.0625 -4.984375 C 2.601562 -4.984375 2.253906 -4.953125 2.015625 -4.890625 C 1.785156 -4.828125 1.585938 -4.757812 1.421875 -4.6875 L 1.109375 -4.78125 L 1.53125 -9.515625 L 5.984375 -9.515625 L 6.046875 -7.5 L 5.484375 -7.5 L 5.4375 -7.90625 C 5.40625 -8.09375 5.347656 -8.226562 5.265625 -8.3125 C 5.179688 -8.40625 5 -8.453125 4.71875 -8.453125 L 2.125 -8.453125 L 1.875 -5.5 C 2.007812 -5.550781 2.207031 -5.597656 2.46875 -5.640625 C 2.726562 -5.691406 3.050781 -5.71875 3.4375 -5.71875 C 4.019531 -5.71875 4.535156 -5.613281 4.984375 -5.40625 C 5.441406 -5.195312 5.804688 -4.882812 6.078125 -4.46875 C 6.347656 -4.0625 6.484375 -3.539062 6.484375 -2.90625 C 6.484375 -2.300781 6.351562 -1.769531 6.09375 -1.3125 C 5.84375 -0.851562 5.476562 -0.492188 5 -0.234375 C 4.519531 0.015625 3.9375 0.140625 3.25 0.140625 Z "/>
</g>
</g>
</defs>
<g fill="rgb(0%, 0%, 0%)" fill-opacity="1">
<use xlink:href="#glyph-0-0" x="30" y="34.25293"/>
</g>
</svg>
